<svg width="50" height="50" viewBox="0 0 605 643" fill="none" xmlns="http://www.w3.org/2000/svg">
<path fill-rule="evenodd" clip-rule="evenodd" d="M282.196 1.63897C270.945 4.0745 260.151 8.46526 249.843 14.7983C241.55 19.8925 229.306 32.0432 134.638 129.123C76.3778 188.866 26.5859 240.653 23.9881 244.206C13.9801 257.892 6.66862 274.187 2.648 291.765C0.619327 300.64 0.5 308.155 0.5 427.399C0.5 553.402 0.504581 553.655 3.00141 563.226C13.2549 602.52 42.619 631.548 80.5143 639.851C91.5997 642.281 93.2176 642.299 300.584 642.299C486.864 642.299 510.443 642.097 518.33 640.435C564.368 630.736 596.329 597.033 603.425 550.702C604.375 544.492 604.666 522.132 604.413 474.874L604.053 407.854L600.59 400.925C596.694 393.131 588.654 386.012 581.104 383.673C578.579 382.891 573.364 382.284 569.513 382.324C560.681 382.414 553.713 385.722 547.26 392.886C538.266 402.871 538.717 398.932 538.075 473.225L537.501 539.602L533.772 547.35C529.351 556.538 522.146 563.756 513.032 568.129L506.52 571.253H302.85C105.509 571.253 98.9973 571.183 93.3014 569.019C81.1431 564.4 72.4914 555.6 67.375 542.652L64.7565 536.023L64.4227 431.529C64.1989 361.456 64.4938 324.367 65.3165 318.936C66.791 309.213 72.6658 292.747 78.0163 283.339C80.9446 278.19 105.327 252.48 176.601 179.383C270.745 82.8323 271.349 82.2416 280.475 77.8051C289.204 73.5623 290.218 73.3427 301.129 73.3427C312.049 73.3427 313.046 73.5588 321.783 77.8168C330.845 82.2334 331.931 83.2833 406.83 160.019C467.148 221.816 483.257 238.951 485.429 243.618C487.568 248.214 488.156 251.405 488.133 258.301C488.083 273.7 489.795 271.632 403.251 360.845C360.968 404.432 323.627 441.983 320.27 444.289C310.243 451.185 297.692 454.696 282.77 454.783C273.83 454.836 268.14 454.247 263.263 452.765C244.442 447.049 228.596 433.912 220.701 417.481C216.391 408.509 216.218 407.696 216.218 396.343C216.218 385.343 216.488 383.947 220.163 375.92C223.96 367.629 226.439 364.945 286.029 304.59C320.086 270.097 349.167 240.042 350.657 237.799C352.145 235.557 354.19 230.42 355.2 226.385C356.749 220.199 356.815 218.03 355.626 212.545C353.769 203.974 351.867 200.384 345.492 193.408C334.787 181.694 319.875 177.843 305.719 183.134C299.129 185.598 296.226 188.383 237.931 248.178C198.443 288.684 174.905 313.73 170.988 319.41C154.051 343.965 146.863 369.062 148.315 398.559C149.475 422.136 156.385 442.95 169.811 463.313C177.053 474.296 193.679 492.232 204.17 500.377C214.765 508.602 234.785 518.486 248.347 522.185C258.952 525.078 261.558 525.316 282.77 525.322C304.429 525.329 306.299 525.15 316.046 522.146C328.742 518.232 344.886 510.176 353.461 503.475C363.269 495.81 539.758 316.208 545.051 308.505C561.624 284.391 564.628 251.269 552.865 222.352C546.03 205.55 538.098 195.274 510.341 167.279C456.514 112.984 369.92 27.3166 363.681 22.1871C355.241 15.2481 338.888 6.63921 328.049 3.43098C317.075 0.181648 293.229 -0.75076 282.196 1.63897Z" fill="#00B0FF"/>
</svg>
